<?xml version="1.0" encoding="UTF-8" standalone="no"?>
<!DOCTYPE svg PUBLIC "-//W3C//DTD SVG 1.1//EN"
 "http://www.w3.org/Graphics/SVG/1.1/DTD/svg11.dtd">
<!-- Generated by graphviz version 5.0.0 (20220707.1540)
 -->
<!-- Title: dependencies Pages: 1 -->
<svg width="1431pt" height="247pt"
 viewBox="0.00 0.00 1431.00 246.80" xmlns="http://www.w3.org/2000/svg" xmlns:xlink="http://www.w3.org/1999/xlink">
<g id="graph0" class="graph" transform="scale(1 1) rotate(0) translate(4 242.8)">
<title>dependencies</title>
<polygon fill="white" stroke="transparent" points="-4,4 -4,-242.8 1427,-242.8 1427,4 -4,4"/>
<text text-anchor="middle" x="711.5" y="-8.2" font-family="sans-serif" font-size="14.00">dependencies</text>
<g id="clust1" class="cluster">
<title>cluster_AppModule</title>
<polygon fill="none" stroke="black" stroke-dasharray="1,5" points="8,-32.8 8,-230.8 1415,-230.8 1415,-32.8 8,-32.8"/>
</g>
<g id="clust2" class="cluster">
<title>cluster_AppModule_declarations</title>
<polygon fill="none" stroke="black" points="182,-40.8 182,-92.8 1407,-92.8 1407,-40.8 182,-40.8"/>
</g>
<g id="clust11" class="cluster">
<title>cluster_AppModule_imports</title>
<polygon fill="none" stroke="black" points="16,-40.8 16,-92.8 174,-92.8 174,-40.8 16,-40.8"/>
</g>
<g id="clust13" class="cluster">
<title>cluster_AppModule_bootstrap</title>
<polygon fill="none" stroke="black" points="664,-170.8 664,-222.8 788,-222.8 788,-170.8 664,-170.8"/>
</g>
<!-- AppComponent -->
<g id="node1" class="node">
<title>AppComponent</title>
<polygon fill="#ffffb3" stroke="black" points="1398.94,-84.8 1293.06,-84.8 1293.06,-48.8 1398.94,-48.8 1398.94,-84.8"/>
<text text-anchor="middle" x="1346" y="-62.6" font-family="Times,serif" font-size="14.00">AppComponent</text>
</g>
<!-- AppModule -->
<g id="node9" class="node">
<title>AppModule</title>
<polygon fill="#8dd3c7" stroke="black" points="767.66,-149.8 764.66,-153.8 743.66,-153.8 740.66,-149.8 684.34,-149.8 684.34,-113.8 767.66,-113.8 767.66,-149.8"/>
<text text-anchor="middle" x="726" y="-127.6" font-family="Times,serif" font-size="14.00">AppModule</text>
</g>
<!-- AppComponent&#45;&gt;AppModule -->
<g id="edge1" class="edge">
<title>AppComponent&#45;&gt;AppModule</title>
<path fill="none" stroke="black" d="M1346,-84.81C1346,-107.29 1346,-142.8 1346,-142.8 1346,-142.8 778.13,-142.8 778.13,-142.8"/>
<polygon fill="black" stroke="black" points="778.13,-139.3 768.13,-142.8 778.13,-146.3 778.13,-139.3"/>
</g>
<!-- BatteryLevelComponent -->
<g id="node2" class="node">
<title>BatteryLevelComponent</title>
<polygon fill="#ffffb3" stroke="black" points="1275.41,-84.8 1120.59,-84.8 1120.59,-48.8 1275.41,-48.8 1275.41,-84.8"/>
<text text-anchor="middle" x="1198" y="-62.6" font-family="Times,serif" font-size="14.00">BatteryLevelComponent</text>
</g>
<!-- BatteryLevelComponent&#45;&gt;AppModule -->
<g id="edge2" class="edge">
<title>BatteryLevelComponent&#45;&gt;AppModule</title>
<path fill="none" stroke="black" d="M1198,-84.93C1198,-105.37 1198,-135.8 1198,-135.8 1198,-135.8 777.89,-135.8 777.89,-135.8"/>
<polygon fill="black" stroke="black" points="777.89,-132.3 767.89,-135.8 777.89,-139.3 777.89,-132.3"/>
</g>
<!-- DashboardComponent -->
<g id="node3" class="node">
<title>DashboardComponent</title>
<polygon fill="#ffffb3" stroke="black" points="1102.98,-84.8 961.02,-84.8 961.02,-48.8 1102.98,-48.8 1102.98,-84.8"/>
<text text-anchor="middle" x="1032" y="-62.6" font-family="Times,serif" font-size="14.00">DashboardComponent</text>
</g>
<!-- DashboardComponent&#45;&gt;AppModule -->
<g id="edge3" class="edge">
<title>DashboardComponent&#45;&gt;AppModule</title>
<path fill="none" stroke="black" d="M1032,-85.07C1032,-103.36 1032,-128.8 1032,-128.8 1032,-128.8 777.91,-128.8 777.91,-128.8"/>
<polygon fill="black" stroke="black" points="777.91,-125.3 767.91,-128.8 777.91,-132.3 777.91,-125.3"/>
</g>
<!-- HumidityComponent -->
<g id="node4" class="node">
<title>HumidityComponent</title>
<polygon fill="#ffffb3" stroke="black" points="943.5,-84.8 808.5,-84.8 808.5,-48.8 943.5,-48.8 943.5,-84.8"/>
<text text-anchor="middle" x="876" y="-62.6" font-family="Times,serif" font-size="14.00">HumidityComponent</text>
</g>
<!-- HumidityComponent&#45;&gt;AppModule -->
<g id="edge4" class="edge">
<title>HumidityComponent&#45;&gt;AppModule</title>
<path fill="none" stroke="black" d="M876,-84.81C876,-100.85 876,-121.8 876,-121.8 876,-121.8 777.78,-121.8 777.78,-121.8"/>
<polygon fill="black" stroke="black" points="777.78,-118.3 767.78,-121.8 777.78,-125.3 777.78,-118.3"/>
</g>
<!-- PressureComponent -->
<g id="node5" class="node">
<title>PressureComponent</title>
<polygon fill="#ffffb3" stroke="black" points="790.27,-84.8 661.73,-84.8 661.73,-48.8 790.27,-48.8 790.27,-84.8"/>
<text text-anchor="middle" x="726" y="-62.6" font-family="Times,serif" font-size="14.00">PressureComponent</text>
</g>
<!-- PressureComponent&#45;&gt;AppModule -->
<g id="edge5" class="edge">
<title>PressureComponent&#45;&gt;AppModule</title>
<path fill="none" stroke="black" d="M726,-84.91C726,-84.91 726,-103.79 726,-103.79"/>
<polygon fill="black" stroke="black" points="722.5,-103.79 726,-113.79 729.5,-103.79 722.5,-103.79"/>
</g>
<!-- StepCounterComponent -->
<g id="node6" class="node">
<title>StepCounterComponent</title>
<polygon fill="#ffffb3" stroke="black" points="643.82,-84.8 492.18,-84.8 492.18,-48.8 643.82,-48.8 643.82,-84.8"/>
<text text-anchor="middle" x="568" y="-62.6" font-family="Times,serif" font-size="14.00">StepCounterComponent</text>
</g>
<!-- StepCounterComponent&#45;&gt;AppModule -->
<g id="edge6" class="edge">
<title>StepCounterComponent&#45;&gt;AppModule</title>
<path fill="none" stroke="black" d="M568,-84.81C568,-100.85 568,-121.8 568,-121.8 568,-121.8 674.07,-121.8 674.07,-121.8"/>
<polygon fill="black" stroke="black" points="674.07,-125.3 684.07,-121.8 674.07,-118.3 674.07,-125.3"/>
</g>
<!-- TempComponent -->
<g id="node7" class="node">
<title>TempComponent</title>
<polygon fill="#ffffb3" stroke="black" points="473.99,-84.8 360.01,-84.8 360.01,-48.8 473.99,-48.8 473.99,-84.8"/>
<text text-anchor="middle" x="417" y="-62.6" font-family="Times,serif" font-size="14.00">TempComponent</text>
</g>
<!-- TempComponent&#45;&gt;AppModule -->
<g id="edge7" class="edge">
<title>TempComponent&#45;&gt;AppModule</title>
<path fill="none" stroke="black" d="M417,-85.07C417,-103.36 417,-128.8 417,-128.8 417,-128.8 674.33,-128.8 674.33,-128.8"/>
<polygon fill="black" stroke="black" points="674.33,-132.3 684.33,-128.8 674.33,-125.3 674.33,-132.3"/>
</g>
<!-- TemperatureComponent -->
<g id="node8" class="node">
<title>TemperatureComponent</title>
<polygon fill="#ffffb3" stroke="black" points="342.34,-84.8 189.66,-84.8 189.66,-48.8 342.34,-48.8 342.34,-84.8"/>
<text text-anchor="middle" x="266" y="-62.6" font-family="Times,serif" font-size="14.00">TemperatureComponent</text>
</g>
<!-- TemperatureComponent&#45;&gt;AppModule -->
<g id="edge8" class="edge">
<title>TemperatureComponent&#45;&gt;AppModule</title>
<path fill="none" stroke="black" d="M266,-84.93C266,-105.37 266,-135.8 266,-135.8 266,-135.8 673.96,-135.8 673.96,-135.8"/>
<polygon fill="black" stroke="black" points="673.96,-139.3 683.96,-135.8 673.96,-132.3 673.96,-139.3"/>
</g>
<!-- AppComponent  -->
<g id="node11" class="node">
<title>AppComponent </title>
<polygon fill="#80b1d3" stroke="black" points="780.44,-214.8 671.56,-214.8 671.56,-178.8 780.44,-178.8 780.44,-214.8"/>
<text text-anchor="middle" x="726" y="-192.6" font-family="Times,serif" font-size="14.00">AppComponent </text>
</g>
<!-- AppModule&#45;&gt;AppComponent  -->
<g id="edge10" class="edge">
<title>AppModule&#45;&gt;AppComponent </title>
<path fill="none" stroke="black" stroke-dasharray="1,5" d="M726,-149.91C726,-149.91 726,-168.79 726,-168.79"/>
<polygon fill="black" stroke="black" points="722.5,-168.79 726,-178.79 729.5,-168.79 722.5,-168.79"/>
</g>
<!-- WebBluetoothModule -->
<g id="node10" class="node">
<title>WebBluetoothModule</title>
<polygon fill="#8dd3c7" stroke="black" points="165.7,-84.8 162.7,-88.8 141.7,-88.8 138.7,-84.8 24.3,-84.8 24.3,-48.8 165.7,-48.8 165.7,-84.8"/>
<text text-anchor="middle" x="95" y="-62.6" font-family="Times,serif" font-size="14.00">WebBluetoothModule</text>
</g>
<!-- WebBluetoothModule&#45;&gt;AppModule -->
<g id="edge9" class="edge">
<title>WebBluetoothModule&#45;&gt;AppModule</title>
<path fill="none" stroke="black" d="M95,-84.81C95,-107.29 95,-142.8 95,-142.8 95,-142.8 674.11,-142.8 674.11,-142.8"/>
<polygon fill="black" stroke="black" points="674.11,-146.3 684.11,-142.8 674.11,-139.3 674.11,-146.3"/>
</g>
</g>
</svg>
