<?xml version="1.0" encoding="UTF-8" standalone="no"?>
<!DOCTYPE svg PUBLIC "-//W3C//DTD SVG 1.1//EN"
 "http://www.w3.org/Graphics/SVG/1.1/DTD/svg11.dtd">
<!-- Generated by graphviz version 5.0.0 (20220707.1540)
 -->
<!-- Title: dependencies Pages: 1 -->
<svg width="1431pt" height="247pt"
 viewBox="0.00 0.00 1431.00 246.80" xmlns="http://www.w3.org/2000/svg" xmlns:xlink="http://www.w3.org/1999/xlink">
<g id="graph0" class="graph" transform="scale(1 1) rotate(0) translate(4 242.8)">
<title>dependencies</title>
<polygon fill="white" stroke="transparent" points="-4,4 -4,-242.8 1427,-242.8 1427,4 -4,4"/>
<text text-anchor="middle" x="711.5" y="-8.2" font-family="sans-serif" font-size="14.00">dependencies</text>
<g id="clust1" class="cluster">
<title>cluster_AppModule</title>
<polygon fill="none" stroke="black" stroke-dasharray="1,5" points="8,-32.8 8,-230.8 1415,-230.8 1415,-32.8 8,-32.8"/>
</g>
<g id="clust11" class="cluster">
<title>cluster_AppModule_imports</title>
<polygon fill="none" stroke="black" points="1249,-40.8 1249,-92.8 1407,-92.8 1407,-40.8 1249,-40.8"/>
</g>
<g id="clust13" class="cluster">
<title>cluster_AppModule_bootstrap</title>
<polygon fill="none" stroke="black" points="648,-170.8 648,-222.8 772,-222.8 772,-170.8 648,-170.8"/>
</g>
<g id="clust2" class="cluster">
<title>cluster_AppModule_declarations</title>
<polygon fill="none" stroke="black" points="16,-40.8 16,-92.8 1241,-92.8 1241,-40.8 16,-40.8"/>
</g>
<!-- AppComponent -->
<g id="node1" class="node">
<title>AppComponent</title>
<polygon fill="#ffffb3" stroke="black" points="1232.94,-84.8 1127.06,-84.8 1127.06,-48.8 1232.94,-48.8 1232.94,-84.8"/>
<text text-anchor="middle" x="1180" y="-62.6" font-family="Times,serif" font-size="14.00">AppComponent</text>
</g>
<!-- AppModule -->
<g id="node9" class="node">
<title>AppModule</title>
<polygon fill="#8dd3c7" stroke="black" points="751.66,-149.8 748.66,-153.8 727.66,-153.8 724.66,-149.8 668.34,-149.8 668.34,-113.8 751.66,-113.8 751.66,-149.8"/>
<text text-anchor="middle" x="710" y="-127.6" font-family="Times,serif" font-size="14.00">AppModule</text>
</g>
<!-- AppComponent&#45;&gt;AppModule -->
<g id="edge1" class="edge">
<title>AppComponent&#45;&gt;AppModule</title>
<path fill="none" stroke="black" d="M1180,-84.93C1180,-105.37 1180,-135.8 1180,-135.8 1180,-135.8 761.71,-135.8 761.71,-135.8"/>
<polygon fill="black" stroke="black" points="761.71,-132.3 751.71,-135.8 761.71,-139.3 761.71,-132.3"/>
</g>
<!-- BatteryLevelComponent -->
<g id="node2" class="node">
<title>BatteryLevelComponent</title>
<polygon fill="#ffffb3" stroke="black" points="1109.41,-84.8 954.59,-84.8 954.59,-48.8 1109.41,-48.8 1109.41,-84.8"/>
<text text-anchor="middle" x="1032" y="-62.6" font-family="Times,serif" font-size="14.00">BatteryLevelComponent</text>
</g>
<!-- BatteryLevelComponent&#45;&gt;AppModule -->
<g id="edge2" class="edge">
<title>BatteryLevelComponent&#45;&gt;AppModule</title>
<path fill="none" stroke="black" d="M1032,-85.07C1032,-103.36 1032,-128.8 1032,-128.8 1032,-128.8 761.77,-128.8 761.77,-128.8"/>
<polygon fill="black" stroke="black" points="761.77,-125.3 751.77,-128.8 761.77,-132.3 761.77,-125.3"/>
</g>
<!-- DashboardComponent -->
<g id="node3" class="node">
<title>DashboardComponent</title>
<polygon fill="#ffffb3" stroke="black" points="936.98,-84.8 795.02,-84.8 795.02,-48.8 936.98,-48.8 936.98,-84.8"/>
<text text-anchor="middle" x="866" y="-62.6" font-family="Times,serif" font-size="14.00">DashboardComponent</text>
</g>
<!-- DashboardComponent&#45;&gt;AppModule -->
<g id="edge3" class="edge">
<title>DashboardComponent&#45;&gt;AppModule</title>
<path fill="none" stroke="black" d="M866,-84.81C866,-100.85 866,-121.8 866,-121.8 866,-121.8 761.81,-121.8 761.81,-121.8"/>
<polygon fill="black" stroke="black" points="761.81,-118.3 751.81,-121.8 761.81,-125.3 761.81,-118.3"/>
</g>
<!-- HumidityComponent -->
<g id="node4" class="node">
<title>HumidityComponent</title>
<polygon fill="#ffffb3" stroke="black" points="777.5,-84.8 642.5,-84.8 642.5,-48.8 777.5,-48.8 777.5,-84.8"/>
<text text-anchor="middle" x="710" y="-62.6" font-family="Times,serif" font-size="14.00">HumidityComponent</text>
</g>
<!-- HumidityComponent&#45;&gt;AppModule -->
<g id="edge4" class="edge">
<title>HumidityComponent&#45;&gt;AppModule</title>
<path fill="none" stroke="black" d="M710,-84.91C710,-84.91 710,-103.79 710,-103.79"/>
<polygon fill="black" stroke="black" points="706.5,-103.79 710,-113.79 713.5,-103.79 706.5,-103.79"/>
</g>
<!-- PressureComponent -->
<g id="node5" class="node">
<title>PressureComponent</title>
<polygon fill="#ffffb3" stroke="black" points="624.27,-84.8 495.73,-84.8 495.73,-48.8 624.27,-48.8 624.27,-84.8"/>
<text text-anchor="middle" x="560" y="-62.6" font-family="Times,serif" font-size="14.00">PressureComponent</text>
</g>
<!-- PressureComponent&#45;&gt;AppModule -->
<g id="edge5" class="edge">
<title>PressureComponent&#45;&gt;AppModule</title>
<path fill="none" stroke="black" d="M560,-84.81C560,-100.85 560,-121.8 560,-121.8 560,-121.8 658.22,-121.8 658.22,-121.8"/>
<polygon fill="black" stroke="black" points="658.22,-125.3 668.22,-121.8 658.22,-118.3 658.22,-125.3"/>
</g>
<!-- StepCounterComponent -->
<g id="node6" class="node">
<title>StepCounterComponent</title>
<polygon fill="#ffffb3" stroke="black" points="477.82,-84.8 326.18,-84.8 326.18,-48.8 477.82,-48.8 477.82,-84.8"/>
<text text-anchor="middle" x="402" y="-62.6" font-family="Times,serif" font-size="14.00">StepCounterComponent</text>
</g>
<!-- StepCounterComponent&#45;&gt;AppModule -->
<g id="edge6" class="edge">
<title>StepCounterComponent&#45;&gt;AppModule</title>
<path fill="none" stroke="black" d="M402,-85.07C402,-103.36 402,-128.8 402,-128.8 402,-128.8 658.14,-128.8 658.14,-128.8"/>
<polygon fill="black" stroke="black" points="658.14,-132.3 668.14,-128.8 658.14,-125.3 658.14,-132.3"/>
</g>
<!-- TempComponent -->
<g id="node7" class="node">
<title>TempComponent</title>
<polygon fill="#ffffb3" stroke="black" points="307.99,-84.8 194.01,-84.8 194.01,-48.8 307.99,-48.8 307.99,-84.8"/>
<text text-anchor="middle" x="251" y="-62.6" font-family="Times,serif" font-size="14.00">TempComponent</text>
</g>
<!-- TempComponent&#45;&gt;AppModule -->
<g id="edge7" class="edge">
<title>TempComponent&#45;&gt;AppModule</title>
<path fill="none" stroke="black" d="M251,-84.93C251,-105.37 251,-135.8 251,-135.8 251,-135.8 658.05,-135.8 658.05,-135.8"/>
<polygon fill="black" stroke="black" points="658.05,-139.3 668.05,-135.8 658.05,-132.3 658.05,-139.3"/>
</g>
<!-- TemperatureComponent -->
<g id="node8" class="node">
<title>TemperatureComponent</title>
<polygon fill="#ffffb3" stroke="black" points="176.34,-84.8 23.66,-84.8 23.66,-48.8 176.34,-48.8 176.34,-84.8"/>
<text text-anchor="middle" x="100" y="-62.6" font-family="Times,serif" font-size="14.00">TemperatureComponent</text>
</g>
<!-- TemperatureComponent&#45;&gt;AppModule -->
<g id="edge8" class="edge">
<title>TemperatureComponent&#45;&gt;AppModule</title>
<path fill="none" stroke="black" d="M100,-84.81C100,-107.29 100,-142.8 100,-142.8 100,-142.8 658.07,-142.8 658.07,-142.8"/>
<polygon fill="black" stroke="black" points="658.07,-146.3 668.07,-142.8 658.07,-139.3 658.07,-146.3"/>
</g>
<!-- AppComponent  -->
<g id="node11" class="node">
<title>AppComponent </title>
<polygon fill="#80b1d3" stroke="black" points="764.44,-214.8 655.56,-214.8 655.56,-178.8 764.44,-178.8 764.44,-214.8"/>
<text text-anchor="middle" x="710" y="-192.6" font-family="Times,serif" font-size="14.00">AppComponent </text>
</g>
<!-- AppModule&#45;&gt;AppComponent  -->
<g id="edge10" class="edge">
<title>AppModule&#45;&gt;AppComponent </title>
<path fill="none" stroke="black" stroke-dasharray="1,5" d="M710,-149.91C710,-149.91 710,-168.79 710,-168.79"/>
<polygon fill="black" stroke="black" points="706.5,-168.79 710,-178.79 713.5,-168.79 706.5,-168.79"/>
</g>
<!-- WebBluetoothModule -->
<g id="node10" class="node">
<title>WebBluetoothModule</title>
<polygon fill="#8dd3c7" stroke="black" points="1398.7,-84.8 1395.7,-88.8 1374.7,-88.8 1371.7,-84.8 1257.3,-84.8 1257.3,-48.8 1398.7,-48.8 1398.7,-84.8"/>
<text text-anchor="middle" x="1328" y="-62.6" font-family="Times,serif" font-size="14.00">WebBluetoothModule</text>
</g>
<!-- WebBluetoothModule&#45;&gt;AppModule -->
<g id="edge9" class="edge">
<title>WebBluetoothModule&#45;&gt;AppModule</title>
<path fill="none" stroke="black" d="M1328,-84.81C1328,-107.29 1328,-142.8 1328,-142.8 1328,-142.8 761.99,-142.8 761.99,-142.8"/>
<polygon fill="black" stroke="black" points="761.99,-139.3 751.99,-142.8 761.99,-146.3 761.99,-139.3"/>
</g>
</g>
</svg>
